<svg width="212" height="68" viewBox="0 0 212 68" fill="none" xmlns="http://www.w3.org/2000/svg">
<path d="M7.36602 31.9894C8.23678 32.9677 9.27974 33.7778 10.443 34.3796C11.5982 34.964 12.8774 35.2609 14.1719 35.2449C15.8404 35.2449 17.1959 34.8051 18.2384 33.9256C18.7447 33.5039 19.1492 32.9734 19.4219 32.3735C19.6961 31.7768 19.8288 31.1248 19.8099 30.4683C19.8576 29.3535 19.5175 28.2565 18.8476 27.3641C18.1035 26.4761 17.1684 25.7678 16.112 25.2921C14.7805 24.6719 13.418 24.1201 12.03 23.6391C10.9991 23.2816 9.98983 22.8644 9.00735 22.3897C7.87051 21.8594 6.7989 21.1992 5.81393 20.4224C4.79176 19.6147 3.93981 18.6124 3.3073 17.4735C2.62353 16.1727 2.28927 14.7166 2.33725 13.2479C2.30027 11.4625 2.8241 9.71055 3.83501 8.23852C4.88612 6.76293 6.3111 5.59375 7.96357 4.85109C9.8008 4.01034 11.8025 3.59012 13.8227 3.62106C15.7566 3.58372 17.6741 3.98155 19.4335 4.78512C22.3225 6.12094 24.6649 8.40857 26.0687 11.2651L21.1175 13.9813C20.6259 13.0915 20.0307 12.2632 19.3443 11.5134C18.6512 10.7473 17.8174 10.1216 16.8881 9.67033C15.8882 9.19374 14.7904 8.9585 13.683 8.98353C11.9835 8.98353 10.7366 9.36379 9.94248 10.1243C9.56725 10.464 9.26608 10.8775 9.05779 11.3388C8.85138 11.7974 8.74554 12.2949 8.74738 12.7978C8.73917 13.693 9.04076 14.5635 9.60102 15.2617C10.3472 16.124 11.2624 16.824 12.29 17.3182C13.8186 18.1086 15.405 18.7818 17.0355 19.3321C18.1745 19.7159 19.2801 20.1922 20.3415 20.7561C21.4281 21.3234 22.4289 22.0419 23.3137 22.8902C24.2145 23.7573 24.9472 24.7834 25.475 25.9168C26.0553 27.2006 26.3403 28.5981 26.3093 30.0066C26.3406 31.5033 26.0203 32.9865 25.3741 34.3369C24.7193 35.7008 23.7594 36.8957 22.5687 37.8291C21.402 38.7365 20.0901 39.4397 18.6885 39.9089C17.2324 40.3934 15.7065 40.6346 14.1719 40.6229C12.1336 40.6391 10.116 40.2128 8.25847 39.3734C6.46804 38.5743 4.84176 37.4494 3.46251 36.0558C2.13787 34.7359 1.037 33.2091 0.203125 31.5354L4.78955 28.3808C5.51629 29.6727 6.3801 30.8825 7.36602 31.9894Z" fill="#E5E9EB"/>
<path d="M68.1063 27.4179L68.0015 28.7372L62.9572 39.8928H55.9961L73.818 2.29736L91.6903 39.8928H84.7059L79.7469 29.0399L79.6422 27.5809L73.818 14.3261L68.1063 27.4179ZM65.4871 25.6369H82.4243L83.5884 30.72H64.2804L65.4871 25.6369Z" fill="#E5E9EB"/>
<path d="M109.937 21.2754H127.519C127.607 23.7866 127.253 26.2937 126.475 28.6828C125.739 30.9422 124.57 33.0365 123.033 34.8485C121.475 36.6646 119.536 38.1141 117.353 39.0934C114.908 40.1635 112.26 40.693 109.592 40.6455C106.995 40.6694 104.417 40.2116 101.987 39.2952C99.7214 38.4432 97.6546 37.1358 95.9143 35.4538C94.1822 33.7831 92.8206 31.7671 91.9177 29.5364C90.9606 27.1624 90.482 24.6227 90.5091 22.0631C90.4788 19.5082 90.9672 16.9737 91.9448 14.6131C92.8724 12.4144 94.2465 10.4325 95.9803 8.79276C97.7451 7.13546 99.8191 5.842 102.084 4.98627C106.633 3.32757 111.598 3.1914 116.231 4.59824C118.117 5.20384 119.888 6.12201 121.469 7.3144C123.005 8.49556 124.327 9.93137 125.377 11.5594L120.375 14.8187C119.358 13.1171 117.91 11.7143 116.177 10.7523C114.387 9.74083 112.224 9.23382 109.689 9.23123C107.458 9.20786 105.258 9.75977 103.302 10.8338C101.4 11.8797 99.8152 13.42 98.7158 15.2921C97.5502 17.3632 96.9657 19.7106 97.024 22.0864C96.9733 24.4567 97.5474 26.7987 98.6887 28.8768C99.7593 30.7737 101.328 32.3421 103.225 33.4128C105.198 34.5159 107.429 35.0769 109.689 35.0386C111.171 35.0627 112.646 34.8398 114.054 34.379C115.288 33.9791 116.431 33.3411 117.418 32.5009C118.339 31.6977 119.125 30.7518 119.747 29.6994C120.373 28.6561 120.849 27.5302 121.163 26.3547H109.937V21.2754Z" fill="#E5E9EB"/>
<path d="M151.165 21.2755H168.746C168.828 23.7863 168.475 26.2924 167.702 28.6828C166.967 30.9464 165.8 33.0457 164.264 34.864C162.7 36.676 160.755 38.1202 158.568 39.0935C156.124 40.1656 153.476 40.6951 150.808 40.6456C148.21 40.6691 145.63 40.2113 143.198 39.2952C140.934 38.4442 138.868 37.1397 137.126 35.4616C135.402 33.7978 134.043 31.7931 133.137 29.5753C132.182 27.1958 131.708 24.6503 131.744 22.0864C131.713 19.5319 132.2 16.9975 133.176 14.6364C134.106 12.4381 135.481 10.4563 137.215 8.81609C138.979 7.15699 141.051 5.86097 143.315 5.00183C147.86 3.35292 152.817 3.22087 157.443 4.62545C159.328 5.23028 161.097 6.14853 162.677 7.3416C164.212 8.51709 165.534 9.94774 166.585 11.571L161.583 14.8266C160.566 13.1251 159.12 11.7213 157.388 10.7562C155.604 9.73958 153.442 9.23127 150.905 9.23127C148.675 9.20734 146.476 9.75931 144.522 10.8338C142.616 11.883 141.031 13.4292 139.935 15.3077C138.771 17.3735 138.186 19.7157 138.243 22.0864C138.185 24.4582 138.754 26.8033 139.893 28.8846C140.96 30.7866 142.529 32.3595 144.429 33.4322C146.401 34.5333 148.63 35.0941 150.889 35.058C152.375 35.0826 153.854 34.8596 155.266 34.3984C156.489 33.9951 157.621 33.3572 158.599 32.5204C159.527 31.7184 160.319 30.7725 160.947 29.7188C161.577 28.6704 162.055 27.5377 162.367 26.3547H151.145L151.165 21.2755Z" fill="#E5E9EB"/>
<path d="M198.87 4.27979L186.515 24.8721V39.8925H180.245V24.9265L167.828 4.27979H174.89L183.349 19.4825L191.823 4.27979H198.87Z" fill="#E5E9EB"/>
<path d="M46.026 12.3629C46.9947 12.3743 47.9284 12.0006 48.6218 11.3239C49.3151 10.6473 49.7115 9.72302 49.7238 8.75426C49.6927 7.79376 49.2893 6.88299 48.5988 6.21455C47.9084 5.5461 46.985 5.17236 46.024 5.17236C45.063 5.17236 44.1397 5.5461 43.4492 6.21455C42.7588 6.88299 42.3553 7.79376 42.3242 8.75426C42.3303 9.23428 42.4309 9.7084 42.6202 10.1495C42.8095 10.5907 43.0839 10.9902 43.4276 11.3253C43.7714 11.6604 44.1778 11.9245 44.6236 12.1025C45.0694 12.2806 45.5459 12.369 46.026 12.3629Z" fill="#E5E9EB"/>
<path d="M56.7342 4.27979H54.569C55.6318 5.87612 56.1975 7.75166 56.1948 9.66941C56.1948 14.8961 46.3779 26.2263 45.9898 26.7036C45.951 26.7424 35.8547 14.8961 35.8547 9.66941C35.852 7.75166 36.4177 5.87612 37.4805 4.27979H28.168L45.9898 41.8753L63.8738 4.27979H56.7342Z" fill="#E5E9EB"/>
<g clip-path="url(#clip0_10535_26245)">
<path d="M207.016 4.25146C204.448 4.25146 202.359 6.34026 202.359 8.90773C202.593 15.0764 211.439 15.0747 211.672 8.90768C211.672 6.34024 209.583 4.25146 207.016 4.25146ZM207.016 13.0183C204.749 13.0183 202.905 11.1743 202.905 8.90773C203.112 3.46194 210.92 3.46343 211.126 8.90779C211.126 11.1743 209.282 13.0183 207.016 13.0183Z" fill="#E5E9EB"/>
<path d="M209.717 7.48073C209.607 7.44237 209.486 7.47729 209.413 7.56774L208.457 8.76256L207.501 7.56774C207.429 7.47722 207.307 7.44242 207.198 7.48073C207.089 7.51907 207.016 7.62231 207.016 7.73817V10.3682C207.029 10.7298 207.548 10.7296 207.561 10.3682V8.51595L208.244 9.36973C208.347 9.50486 208.568 9.50486 208.67 9.36973L209.353 8.51595V10.3682C209.367 10.7298 209.886 10.7296 209.899 10.3682V7.73817C209.899 7.62231 209.826 7.51907 209.717 7.48073Z" fill="#E5E9EB"/>
<path d="M206.287 7.46533H204.095C203.734 7.47876 203.734 7.99769 204.095 8.01099H204.918V10.3682C204.932 10.7298 205.451 10.7296 205.464 10.3682V8.01099H206.287C206.649 7.99757 206.648 7.47863 206.287 7.46533Z" fill="#E5E9EB"/>
</g>
<path d="M1.78113 49.6108H3.63521V60.3369H1.78113V49.6108ZM5.24413 60.3369H2.89971V58.6361H5.19816C5.72936 58.6361 6.21969 58.5594 6.66917 58.4062C7.11864 58.2428 7.50683 58.0129 7.83372 57.7167C8.17082 57.4102 8.43131 57.0271 8.61519 56.5675C8.80928 56.1078 8.90633 55.5766 8.90633 54.9739C8.90633 54.3712 8.80928 53.84 8.61519 53.3803C8.43131 52.9206 8.17082 52.5375 7.83372 52.231C7.50683 51.9246 7.11864 51.6947 6.66917 51.5415C6.21969 51.3883 5.72936 51.3117 5.19816 51.3117H2.89971V49.6108H5.24413C6.33717 49.6108 7.29741 49.8356 8.12485 50.285C8.9523 50.7243 9.59586 51.3474 10.0556 52.1544C10.5255 52.9512 10.7604 53.891 10.7604 54.9739C10.7604 56.0567 10.5255 57.0016 10.0556 57.8086C9.59586 58.6054 8.9523 59.2286 8.12485 59.678C7.29741 60.1173 6.33717 60.3369 5.24413 60.3369ZM15.4519 60.4901C14.7368 60.4901 14.1035 60.3369 13.5518 60.0305C13.0104 59.724 12.5916 59.295 12.2953 58.7433C11.9991 58.1917 11.851 57.5481 11.851 56.8126C11.851 56.0669 11.9991 55.4182 12.2953 54.8666C12.6018 54.315 13.0308 53.891 13.5825 53.5948C14.1341 53.2883 14.7828 53.1351 15.5285 53.1351C16.2742 53.1351 16.9076 53.2781 17.4285 53.5641C17.9597 53.8502 18.3633 54.2639 18.6391 54.8053C18.9149 55.3365 19.0528 55.9801 19.0528 56.736C19.0528 56.8177 19.0477 56.9046 19.0375 56.9965C19.0375 57.0884 19.0375 57.1548 19.0375 57.1957H12.847V56.0465H17.6124L17.1068 56.7513C17.1374 56.69 17.1681 56.6083 17.1987 56.5062C17.2396 56.404 17.26 56.3172 17.26 56.2457C17.26 55.8677 17.1834 55.5408 17.0301 55.265C16.8871 54.9892 16.6828 54.7747 16.4172 54.6214C16.1618 54.4682 15.8605 54.3916 15.5132 54.3916C15.0943 54.3916 14.7368 54.4835 14.4406 54.6674C14.1545 54.8513 13.9298 55.1169 13.7664 55.4642C13.6131 55.8115 13.5365 56.2406 13.5365 56.7513C13.5263 57.2519 13.5978 57.6809 13.751 58.0385C13.9145 58.396 14.1443 58.6667 14.4406 58.8506C14.7368 59.0345 15.0995 59.1264 15.5285 59.1264C15.9882 59.1264 16.3866 59.0345 16.7237 58.8506C17.0608 58.6667 17.3366 58.3858 17.5511 58.0078L18.9915 58.5748C18.6135 59.2081 18.1334 59.6882 17.5511 60.0151C16.9689 60.3318 16.2691 60.4901 15.4519 60.4901ZM20.6473 48.385H22.3175V60.3369H20.6473V48.385ZM24.3569 50.4842C24.3569 50.1982 24.4591 49.9581 24.6634 49.764C24.8779 49.57 25.1231 49.4729 25.3989 49.4729C25.6951 49.4729 25.9454 49.57 26.1497 49.764C26.354 49.9581 26.4562 50.1982 26.4562 50.4842C26.4562 50.76 26.354 51.0001 26.1497 51.2044C25.9454 51.3985 25.6951 51.4955 25.3989 51.4955C25.1231 51.4955 24.8779 51.3985 24.6634 51.2044C24.4591 51.0001 24.3569 50.76 24.3569 50.4842ZM24.5868 53.2883H26.2263V60.3369H24.5868V53.2883ZM27.4308 53.2883H29.2542L31.093 57.8393L32.9317 53.2883H34.7398L31.093 60.9805L27.4308 53.2883ZM38.6159 60.4901C37.9009 60.4901 37.2675 60.3369 36.7159 60.0305C36.1745 59.724 35.7557 59.295 35.4594 58.7433C35.1632 58.1917 35.015 57.5481 35.015 56.8126C35.015 56.0669 35.1632 55.4182 35.4594 54.8666C35.7659 54.315 36.1949 53.891 36.7465 53.5948C37.2982 53.2883 37.9468 53.1351 38.6926 53.1351C39.4383 53.1351 40.0716 53.2781 40.5926 53.5641C41.1238 53.8502 41.5273 54.2639 41.8031 54.8053C42.0789 55.3365 42.2168 55.9801 42.2168 56.736C42.2168 56.8177 42.2117 56.9046 42.2015 56.9965C42.2015 57.0884 42.2015 57.1548 42.2015 57.1957H36.011V56.0465H40.7765L40.2708 56.7513C40.3015 56.69 40.3321 56.6083 40.3628 56.5062C40.4036 56.404 40.4241 56.3172 40.4241 56.2457C40.4241 55.8677 40.3474 55.5408 40.1942 55.265C40.0512 54.9892 39.8469 54.7747 39.5813 54.6214C39.3259 54.4682 39.0246 54.3916 38.6772 54.3916C38.2584 54.3916 37.9009 54.4835 37.6046 54.6674C37.3186 54.8513 37.0939 55.1169 36.9304 55.4642C36.7772 55.8115 36.7006 56.2406 36.7006 56.7513C36.6904 57.2519 36.7619 57.6809 36.9151 58.0385C37.0785 58.396 37.3084 58.6667 37.6046 58.8506C37.9009 59.0345 38.2635 59.1264 38.6926 59.1264C39.1522 59.1264 39.5506 59.0345 39.8878 58.8506C40.2249 58.6667 40.5007 58.3858 40.7152 58.0078L42.1556 58.5748C41.7776 59.2081 41.2975 59.6882 40.7152 60.0151C40.1329 60.3318 39.4332 60.4901 38.6159 60.4901ZM45.451 53.2883V60.3369H43.8114V53.2883H45.451ZM47.5502 55.0505C47.4072 54.9279 47.2642 54.836 47.1212 54.7747C46.9884 54.7134 46.8198 54.6827 46.6155 54.6827C46.3397 54.6827 46.115 54.7542 45.9413 54.8972C45.7676 55.0403 45.6399 55.2395 45.5582 55.4948C45.4867 55.74 45.451 56.0312 45.451 56.3683L44.8993 56.0465C44.8993 55.4846 45.0015 54.9892 45.2058 54.5601C45.4203 54.1209 45.691 53.7736 46.0179 53.5182C46.355 53.2526 46.7023 53.1198 47.0599 53.1198C47.3153 53.1198 47.5553 53.1606 47.7801 53.2424C48.0048 53.3241 48.1989 53.462 48.3623 53.6561L47.5502 55.0505ZM49.4364 50.4842C49.4364 50.1982 49.5385 49.9581 49.7428 49.764C49.9574 49.57 50.2025 49.4729 50.4783 49.4729C50.7746 49.4729 51.0249 49.57 51.2292 49.764C51.4335 49.9581 51.5356 50.1982 51.5356 50.4842C51.5356 50.76 51.4335 51.0001 51.2292 51.2044C51.0249 51.3985 50.7746 51.4955 50.4783 51.4955C50.2025 51.4955 49.9574 51.3985 49.7428 51.2044C49.5385 51.0001 49.4364 50.76 49.4364 50.4842ZM49.6662 53.2883H51.3058V60.3369H49.6662V53.2883ZM58.1184 56.0465C58.1184 55.5255 58.0112 55.1322 57.7966 54.8666C57.5821 54.601 57.2552 54.4682 56.816 54.4682C56.4993 54.4682 56.2235 54.5346 55.9885 54.6674C55.7536 54.79 55.5697 54.9739 55.4369 55.219C55.3143 55.454 55.253 55.7298 55.253 56.0465V60.3369H53.5828V53.2883H55.253V54.3763C55.4777 53.9574 55.7638 53.6459 56.1111 53.4416C56.4686 53.2373 56.8875 53.1351 57.3676 53.1351C58.1644 53.1351 58.7722 53.3803 59.191 53.8706C59.6098 54.3507 59.8193 55.0096 59.8193 55.8473V60.3369H58.1184V56.0465ZM61.5342 60.8119H63.1891C63.1993 61.1286 63.2862 61.4095 63.4496 61.6547C63.6131 61.9101 63.8429 62.1093 64.1392 62.2523C64.4354 62.4055 64.7827 62.4821 65.1811 62.4821C65.5182 62.4821 65.8451 62.4004 66.1618 62.237C66.4785 62.0735 66.7338 61.8232 66.9279 61.4861C67.1322 61.149 67.2344 60.7149 67.2344 60.1837V53.2883H68.8586V60.1837C68.8586 61.0316 68.685 61.7313 68.3377 62.2829C68.0005 62.8346 67.5562 63.2432 67.0046 63.5088C66.4529 63.7846 65.8553 63.9225 65.2118 63.9225C64.4558 63.9225 63.8072 63.7897 63.2657 63.5241C62.7243 63.2687 62.3055 62.9061 62.0093 62.4362C61.713 61.9663 61.5547 61.4248 61.5342 60.8119ZM61.3963 56.7667C61.3963 55.9903 61.5547 55.3365 61.8713 54.8053C62.188 54.2639 62.6069 53.8502 63.1278 53.5641C63.659 53.2781 64.226 53.1351 64.8287 53.1351C65.4212 53.1351 65.9371 53.2832 66.3763 53.5795C66.8258 53.8655 67.1782 54.2792 67.4336 54.8206C67.6992 55.3518 67.832 56.0005 67.832 56.7667C67.832 57.5226 67.6992 58.1764 67.4336 58.728C67.1782 59.2694 66.8258 59.6882 66.3763 59.9845C65.9371 60.2705 65.4212 60.4135 64.8287 60.4135C64.226 60.4135 63.659 60.2705 63.1278 59.9845C62.6069 59.6985 62.188 59.2847 61.8713 58.7433C61.5547 58.2019 61.3963 57.543 61.3963 56.7667ZM63.1125 56.7667C63.1125 57.2366 63.2096 57.6401 63.4036 57.9772C63.5977 58.3041 63.8531 58.5543 64.1698 58.728C64.4967 58.8914 64.8491 58.9732 65.2271 58.9732C65.554 58.9732 65.8707 58.8914 66.1771 58.728C66.4836 58.5543 66.7338 58.3041 66.9279 57.9772C67.1322 57.6503 67.2344 57.2468 67.2344 56.7667C67.2344 56.4091 67.1731 56.0976 67.0505 55.832C66.9382 55.5561 66.7849 55.3263 66.5908 55.1424C66.3967 54.9483 66.1822 54.8053 65.9473 54.7134C65.7123 54.6214 65.4723 54.5755 65.2271 54.5755C64.8491 54.5755 64.4967 54.6623 64.1698 54.836C63.8531 54.9994 63.5977 55.2446 63.4036 55.5715C63.2096 55.8984 63.1125 56.2967 63.1125 56.7667ZM76.9299 57.5788L77.2823 56.0465H82.2623L82.5994 57.5788H76.9299ZM79.734 52.6448L78.0485 56.5828L78.0178 56.9812L76.5315 60.3369H74.4935L79.734 49.0132L84.9898 60.3369H82.9365L81.4808 57.0731L81.4502 56.6287L79.734 52.6448ZM90.6199 56.0465C90.6199 55.5255 90.5127 55.1322 90.2982 54.8666C90.0836 54.601 89.7567 54.4682 89.3175 54.4682C89.0008 54.4682 88.725 54.5346 88.49 54.6674C88.2551 54.79 88.0712 54.9739 87.9384 55.219C87.8158 55.454 87.7545 55.7298 87.7545 56.0465V60.3369H86.0843V53.2883H87.7545V54.3763C87.9793 53.9574 88.2653 53.6459 88.6126 53.4416C88.9702 53.2373 89.389 53.1351 89.8691 53.1351C90.6659 53.1351 91.2737 53.3803 91.6925 53.8706C92.1114 54.3507 92.3208 55.0096 92.3208 55.8473V60.3369H90.6199V56.0465ZM100.596 53.2883L95.9989 63.708H94.2368L96.0908 59.5095L93.2408 53.2883H95.1408L97.3933 58.8659L96.6118 58.8199L98.8183 53.2883H100.596ZM100.621 53.2883H104.62V54.744H100.621V53.2883ZM101.816 50.8367H103.441V60.3369H101.816V50.8367ZM107.432 48.385V60.3369H105.762V48.385H107.432ZM110.297 56.0465C110.297 55.5255 110.19 55.1322 109.976 54.8666C109.771 54.601 109.444 54.4682 108.995 54.4682C108.678 54.4682 108.402 54.5346 108.168 54.6674C107.933 54.8002 107.749 54.9841 107.616 55.219C107.493 55.454 107.432 55.7298 107.432 56.0465H107.034C107.034 55.4846 107.131 54.9841 107.325 54.5448C107.529 54.0953 107.815 53.7429 108.183 53.4875C108.561 53.2219 109.015 53.0891 109.547 53.0891C110.078 53.0891 110.522 53.1913 110.88 53.3956C111.237 53.5999 111.508 53.9064 111.692 54.315C111.876 54.7134 111.968 55.2139 111.968 55.8166V60.3369H110.297V56.0465ZM114.02 50.4842C114.02 50.1982 114.123 49.9581 114.327 49.764C114.541 49.57 114.787 49.4729 115.062 49.4729C115.359 49.4729 115.609 49.57 115.813 49.764C116.018 49.9581 116.12 50.1982 116.12 50.4842C116.12 50.76 116.018 51.0001 115.813 51.2044C115.609 51.3985 115.359 51.4955 115.062 51.4955C114.787 51.4955 114.541 51.3985 114.327 51.2044C114.123 51.0001 114.02 50.76 114.02 50.4842ZM114.25 53.2883H115.89V60.3369H114.25V53.2883ZM122.702 56.0465C122.702 55.5255 122.595 55.1322 122.381 54.8666C122.166 54.601 121.839 54.4682 121.4 54.4682C121.083 54.4682 120.808 54.5346 120.573 54.6674C120.338 54.79 120.154 54.9739 120.021 55.219C119.898 55.454 119.837 55.7298 119.837 56.0465V60.3369H118.167V53.2883H119.837V54.3763C120.062 53.9574 120.348 53.6459 120.695 53.4416C121.053 53.2373 121.472 53.1351 121.952 53.1351C122.748 53.1351 123.356 53.3803 123.775 53.8706C124.194 54.3507 124.403 55.0096 124.403 55.8473V60.3369H122.702V56.0465ZM126.118 60.8119H127.773C127.783 61.1286 127.87 61.4095 128.034 61.6547C128.197 61.9101 128.427 62.1093 128.723 62.2523C129.019 62.4055 129.367 62.4821 129.765 62.4821C130.102 62.4821 130.429 62.4004 130.746 62.237C131.063 62.0735 131.318 61.8232 131.512 61.4861C131.716 61.149 131.818 60.7149 131.818 60.1837V53.2883H133.443V60.1837C133.443 61.0316 133.269 61.7313 132.922 62.2829C132.585 62.8346 132.14 63.2432 131.589 63.5088C131.037 63.7846 130.439 63.9225 129.796 63.9225C129.04 63.9225 128.391 63.7897 127.85 63.5241C127.308 63.2687 126.89 62.9061 126.593 62.4362C126.297 61.9663 126.139 61.4248 126.118 60.8119ZM125.98 56.7667C125.98 55.9903 126.139 55.3365 126.455 54.8053C126.772 54.2639 127.191 53.8502 127.712 53.5641C128.243 53.2781 128.81 53.1351 129.413 53.1351C130.005 53.1351 130.521 53.2832 130.96 53.5795C131.41 53.8655 131.762 54.2792 132.018 54.8206C132.283 55.3518 132.416 56.0005 132.416 56.7667C132.416 57.5226 132.283 58.1764 132.018 58.728C131.762 59.2694 131.41 59.6882 130.96 59.9845C130.521 60.2705 130.005 60.4135 129.413 60.4135C128.81 60.4135 128.243 60.2705 127.712 59.9845C127.191 59.6985 126.772 59.2847 126.455 58.7433C126.139 58.2019 125.98 57.543 125.98 56.7667ZM127.697 56.7667C127.697 57.2366 127.794 57.6401 127.988 57.9772C128.182 58.3041 128.437 58.5543 128.754 58.728C129.081 58.8914 129.433 58.9732 129.811 58.9732C130.138 58.9732 130.455 58.8914 130.761 58.728C131.068 58.5543 131.318 58.3041 131.512 57.9772C131.716 57.6503 131.818 57.2468 131.818 56.7667C131.818 56.4091 131.757 56.0976 131.635 55.832C131.522 55.5561 131.369 55.3263 131.175 55.1424C130.981 54.9483 130.766 54.8053 130.531 54.7134C130.296 54.6214 130.056 54.5755 129.811 54.5755C129.433 54.5755 129.081 54.6623 128.754 54.836C128.437 54.9994 128.182 55.2446 127.988 55.5715C127.794 55.8984 127.697 56.2967 127.697 56.7667ZM136.537 58.6514L138.207 59.1264L136.414 62.9571L135.189 62.62L136.537 58.6514ZM146.332 57.5788L146.685 56.0465H151.665L152.002 57.5788H146.332ZM149.136 52.6448L147.451 56.5828L147.42 56.9812L145.934 60.3369H143.896L149.136 49.0132L154.392 60.3369H152.339L150.883 57.0731L150.853 56.6287L149.136 52.6448ZM160.022 56.0465C160.022 55.5255 159.915 55.1322 159.701 54.8666C159.486 54.601 159.159 54.4682 158.72 54.4682C158.403 54.4682 158.127 54.5346 157.892 54.6674C157.657 54.79 157.474 54.9739 157.341 55.219C157.218 55.454 157.157 55.7298 157.157 56.0465V60.3369H155.487V53.2883H157.157V54.3763C157.382 53.9574 157.668 53.6459 158.015 53.4416C158.373 53.2373 158.791 53.1351 159.272 53.1351C160.068 53.1351 160.676 53.3803 161.095 53.8706C161.514 54.3507 161.723 55.0096 161.723 55.8473V60.3369H160.022V56.0465ZM169.998 53.2883L165.401 63.708H163.639L165.493 59.5095L162.643 53.2883H164.543L166.796 58.8659L166.014 58.8199L168.221 53.2883H169.998ZM170.024 53.2883H174.023V54.744H170.024V53.2883ZM171.219 50.8367H172.843V60.3369H171.219V50.8367ZM175.103 50.4842C175.103 50.1982 175.205 49.9581 175.409 49.764C175.624 49.57 175.869 49.4729 176.145 49.4729C176.441 49.4729 176.691 49.57 176.896 49.764C177.1 49.9581 177.202 50.1982 177.202 50.4842C177.202 50.76 177.1 51.0001 176.896 51.2044C176.691 51.3985 176.441 51.4955 176.145 51.4955C175.869 51.4955 175.624 51.3985 175.409 51.2044C175.205 51.0001 175.103 50.76 175.103 50.4842ZM175.333 53.2883H176.972V60.3369H175.333V53.2883ZM189.347 55.8473V60.3369H187.677V56.0465C187.677 55.5153 187.58 55.122 187.386 54.8666C187.202 54.601 186.911 54.4682 186.512 54.4682C186.226 54.4682 185.976 54.5295 185.762 54.6521C185.557 54.7747 185.394 54.9534 185.271 55.1884C185.159 55.4233 185.103 55.7094 185.103 56.0465V60.3369H183.448V56.0465C183.448 55.5153 183.351 55.122 183.157 54.8666C182.973 54.601 182.677 54.4682 182.268 54.4682C181.992 54.4682 181.747 54.5295 181.532 54.6521C181.328 54.7747 181.165 54.9534 181.042 55.1884C180.93 55.4233 180.874 55.7094 180.874 56.0465V60.3369H179.249V53.2883H180.874V54.315C181.088 53.9268 181.359 53.6357 181.686 53.4416C182.013 53.2373 182.406 53.1351 182.866 53.1351C183.376 53.1351 183.8 53.2424 184.137 53.4569C184.485 53.6714 184.735 53.983 184.888 54.3916C185.144 53.9728 185.455 53.6612 185.823 53.4569C186.201 53.2424 186.625 53.1351 187.095 53.1351C187.605 53.1351 188.024 53.2424 188.351 53.4569C188.678 53.6612 188.923 53.9677 189.087 54.3763C189.26 54.7849 189.347 55.2752 189.347 55.8473ZM194.51 60.4901C193.794 60.4901 193.161 60.3369 192.609 60.0305C192.068 59.724 191.649 59.295 191.353 58.7433C191.057 58.1917 190.909 57.5481 190.909 56.8126C190.909 56.0669 191.057 55.4182 191.353 54.8666C191.659 54.315 192.088 53.891 192.64 53.5948C193.192 53.2883 193.84 53.1351 194.586 53.1351C195.332 53.1351 195.965 53.2781 196.486 53.5641C197.017 53.8502 197.421 54.2639 197.697 54.8053C197.973 55.3365 198.11 55.9801 198.11 56.736C198.11 56.8177 198.105 56.9046 198.095 56.9965C198.095 57.0884 198.095 57.1548 198.095 57.1957H191.905V56.0465H196.67L196.164 56.7513C196.195 56.69 196.226 56.6083 196.256 56.5062C196.297 56.404 196.318 56.3172 196.318 56.2457C196.318 55.8677 196.241 55.5408 196.088 55.265C195.945 54.9892 195.74 54.7747 195.475 54.6214C195.219 54.4682 194.918 54.3916 194.571 54.3916C194.152 54.3916 193.794 54.4835 193.498 54.6674C193.212 54.8513 192.987 55.1169 192.824 55.4642C192.671 55.8115 192.594 56.2406 192.594 56.7513C192.584 57.2519 192.655 57.6809 192.809 58.0385C192.972 58.396 193.202 58.6667 193.498 58.8506C193.794 59.0345 194.157 59.1264 194.586 59.1264C195.046 59.1264 195.444 59.0345 195.781 58.8506C196.118 58.6667 196.394 58.3858 196.609 58.0078L198.049 58.5748C197.671 59.2081 197.191 59.6882 196.609 60.0151C196.026 60.3318 195.327 60.4901 194.51 60.4901Z" fill="white"/>
<defs>
<clipPath id="clip0_10535_26245">
<rect width="9.31254" height="9.31254" fill="white" transform="translate(202.359 4.23682)"/>
</clipPath>
</defs>
</svg>
