<svg width="142" height="28" viewBox="0 0 142 28" fill="none" xmlns="http://www.w3.org/2000/svg">
<path d="M4.75922 20.5793C5.33778 21.2293 6.03075 21.7676 6.80367 22.1674C7.5712 22.5557 8.42115 22.753 9.28125 22.7423C10.3898 22.7423 11.2905 22.4501 11.9831 21.8658C12.3195 21.5856 12.5883 21.2331 12.7695 20.8345C12.9516 20.438 13.0399 20.0048 13.0273 19.5686C13.0589 18.8279 12.833 18.0991 12.3879 17.5061C11.8935 16.9161 11.2722 16.4455 10.5703 16.1294C9.68557 15.7173 8.78032 15.3508 7.85812 15.0311C7.17314 14.7936 6.50255 14.5164 5.84977 14.201C5.09442 13.8486 4.38241 13.41 3.72797 12.8939C3.04882 12.3572 2.48275 11.6913 2.0625 10.9345C1.60818 10.0702 1.38609 9.10281 1.41797 8.12693C1.3934 6.9407 1.74145 5.77663 2.41312 4.79857C3.11151 3.81814 4.0583 3.04131 5.15625 2.54787C6.37696 1.98925 7.70692 1.71005 9.04922 1.7306C10.3341 1.70579 11.6082 1.97012 12.7772 2.50404C14.6967 3.39159 16.2531 4.91155 17.1858 6.80951L13.8961 8.6142C13.5695 8.02304 13.174 7.47264 12.7179 6.97451C12.2574 6.46548 11.7034 6.04973 11.0859 5.7499C10.4216 5.43325 9.69218 5.27694 8.95641 5.29357C7.82719 5.29357 6.99875 5.54623 6.47109 6.05154C6.22178 6.27726 6.02167 6.55197 5.88328 6.85849C5.74614 7.16319 5.67581 7.49373 5.67703 7.82787C5.67158 8.42266 5.87196 9.00104 6.24422 9.46498C6.73997 10.0379 7.34807 10.503 8.03086 10.8314C9.04651 11.3565 10.1005 11.8038 11.1839 12.1694C11.9407 12.4244 12.6753 12.7409 13.3805 13.1156C14.1025 13.4925 14.7674 13.9699 15.3553 14.5336C15.9538 15.1097 16.4406 15.7914 16.7913 16.5445C17.1769 17.3975 17.3663 18.326 17.3456 19.2619C17.3664 20.2563 17.1536 21.2418 16.7243 22.139C16.2892 23.0452 15.6514 23.8392 14.8603 24.4594C14.0851 25.0622 13.2134 25.5295 12.2822 25.8412C11.3147 26.1631 10.3008 26.3234 9.28125 26.3156C7.92693 26.3264 6.5864 26.0431 5.35219 25.4854C4.16258 24.9545 3.08204 24.207 2.16562 23.2811C1.2855 22.4042 0.554049 21.3897 0 20.2776L3.04734 18.1816C3.53021 19.04 4.10415 19.8438 4.75922 20.5793Z" fill="#CE221E"/>
<path d="M45.1166 17.5423L45.047 18.4189L41.6955 25.831H37.0703L48.9116 0.851562L60.7865 25.831H56.1459L52.851 18.62L52.7814 17.6506L48.9116 8.84375L45.1166 17.5423ZM43.3764 16.359H54.6299L55.4034 19.7363H42.5746L43.3764 16.359Z" fill="#CE221E"/>
<path d="M72.9096 13.4611H84.591C84.6494 15.1296 84.4147 16.7954 83.8975 18.3828C83.4088 19.884 82.6321 21.2755 81.6107 22.4794C80.5757 23.6861 79.2869 24.6492 77.8364 25.2999C76.2119 26.0109 74.4531 26.3627 72.6801 26.3311C70.9548 26.347 69.2414 26.0428 67.627 25.4339C66.1217 24.8679 64.7485 23.9992 63.5922 22.8816C62.4414 21.7716 61.5367 20.4321 60.9367 18.95C60.3009 17.3726 59.9828 15.6851 60.0009 13.9845C59.9807 12.287 60.3052 10.603 60.9548 9.03449C61.5711 7.57365 62.4841 6.25677 63.636 5.16731C64.8087 4.06615 66.1867 3.20674 67.6914 2.63817C70.714 1.53609 74.0128 1.44561 77.0913 2.38035C78.3443 2.78273 79.5209 3.39278 80.5717 4.18504C81.592 4.96984 82.4702 5.92382 83.1679 7.00551L79.8447 9.17113C79.1691 8.04052 78.2068 7.10846 77.0552 6.46926C75.8658 5.79723 74.4289 5.46035 72.7446 5.45864C71.262 5.44311 69.8005 5.80981 68.501 6.5234C67.2369 7.21833 66.1841 8.2418 65.4536 9.48567C64.6792 10.8617 64.2908 12.4214 64.3296 14C64.2959 15.5749 64.6773 17.1309 65.4356 18.5117C66.147 19.772 67.1891 20.8141 68.4494 21.5255C69.7606 22.2585 71.2426 22.6312 72.7446 22.6057C73.729 22.6218 74.7092 22.4737 75.6449 22.1675C76.4645 21.9018 77.2239 21.4779 77.8802 20.9196C78.4921 20.3859 79.0143 19.7575 79.4271 19.0582C79.8429 18.365 80.1597 17.617 80.3681 16.8359H72.9096V13.4611Z" fill="#CE221E"/>
<path d="M100.303 13.4611H111.985C112.039 15.1294 111.805 16.7945 111.291 18.3827C110.803 19.8867 110.027 21.2816 109.007 22.4897C107.968 23.6936 106.675 24.6532 105.222 25.2998C103.598 26.0122 101.839 26.364 100.066 26.3311C98.3398 26.3468 96.6257 26.0426 95.0103 25.4339C93.506 24.8685 92.133 24.0017 90.9755 22.8867C89.8301 21.7813 88.9274 20.4493 88.3252 18.9757C87.6906 17.3947 87.376 15.7034 87.3997 13.9999C87.3791 12.3026 87.7027 10.6187 88.351 9.04993C88.9688 7.58929 89.8827 6.27254 91.0348 5.18274C92.2065 4.08039 93.5836 3.21928 95.0877 2.64844C98.1074 1.55286 101.401 1.46512 104.475 2.39836C105.727 2.80023 106.903 3.41034 107.952 4.20305C108.973 4.98408 109.851 5.93464 110.549 7.01321L107.225 9.17625C106.55 8.04579 105.589 7.11306 104.439 6.4718C103.253 5.79633 101.817 5.4586 100.13 5.4586C98.6487 5.4427 97.188 5.80944 95.8894 6.52336C94.6236 7.2205 93.5705 8.2478 92.8421 9.49594C92.0683 10.8685 91.6799 12.4247 91.718 13.9999C91.6791 15.5758 92.0571 17.134 92.8137 18.5168C93.5233 19.7805 94.5657 20.8256 95.8276 21.5384C97.1384 22.27 98.6192 22.6426 100.12 22.6186C101.107 22.6349 102.09 22.4868 103.028 22.1803C103.841 21.9124 104.593 21.4885 105.243 20.9325C105.859 20.3997 106.386 19.7712 106.803 19.0711C107.222 18.3745 107.539 17.6219 107.746 16.8359H100.29L100.303 13.4611Z" fill="#CE221E"/>
<path d="M132 2.16895L123.791 15.8511V25.831H119.625V15.8871L111.375 2.16895H116.067L121.688 12.27L127.318 2.16895H132Z" fill="#CE221E"/>
<path d="M30.4478 7.53929C31.0915 7.54686 31.7118 7.29857 32.1725 6.84898C32.6332 6.3994 32.8966 5.7853 32.9048 5.14163C32.8841 4.50344 32.616 3.89831 32.1573 3.45417C31.6985 3.01004 31.085 2.76172 30.4465 2.76172C29.808 2.76172 29.1945 3.01004 28.7358 3.45417C28.277 3.89831 28.009 4.50344 27.9883 5.14163C27.9923 5.46057 28.0591 5.77558 28.1849 6.06869C28.3107 6.3618 28.493 6.62725 28.7214 6.8499C28.9498 7.07255 29.2198 7.24803 29.516 7.36631C29.8123 7.4846 30.1289 7.54338 30.4478 7.53929Z" fill="#CE221E"/>
<path d="M37.5622 2.16895H36.1236C36.8297 3.2296 37.2056 4.47575 37.2038 5.74996C37.2038 9.2227 30.6812 16.7508 30.4234 17.0679C30.3976 17.0937 23.6893 9.2227 23.6893 5.74996C23.6875 4.47575 24.0634 3.2296 24.7695 2.16895H18.582L30.4234 27.1484L42.3059 2.16895H37.5622Z" fill="#CE221E"/>
<g clip-path="url(#clip0_10455_20352)">
<path d="M138 2.01306C135.794 2.01306 134 3.80745 134 6.01306C134.201 11.3123 141.8 11.3109 142 6.01301C142 3.80744 140.206 2.01306 138 2.01306ZM138 9.54431C136.053 9.54431 134.469 7.9602 134.469 6.01306C134.646 1.33481 141.354 1.33609 141.531 6.01311C141.531 7.9602 139.947 9.54431 138 9.54431Z" fill="#333333"/>
<path d="M140.32 4.78776C140.226 4.75481 140.122 4.78481 140.06 4.86251L139.239 5.88893L138.417 4.86251C138.355 4.78475 138.251 4.75485 138.157 4.78776C138.063 4.8207 138 4.90939 138 5.00892V7.26829C138.012 7.57893 138.457 7.5787 138.469 7.26829V5.67707L139.056 6.41053C139.144 6.5266 139.333 6.5266 139.422 6.41053L140.008 5.67707V7.26829C140.02 7.57893 140.466 7.5787 140.477 7.26829V5.00892C140.477 4.90939 140.414 4.8207 140.32 4.78776Z" fill="#333333"/>
<path d="M137.374 4.77454H135.491C135.18 4.78607 135.18 5.23186 135.491 5.24329H136.198V7.26829C136.209 7.57893 136.655 7.57869 136.666 7.26829V5.24329H137.374C137.684 5.23175 137.684 4.78596 137.374 4.77454Z" fill="#333333"/>
</g>
<defs>
<clipPath id="clip0_10455_20352">
<rect width="8" height="8" fill="white" transform="translate(134 2)"/>
</clipPath>
</defs>
</svg>
