<svg xmlns="http://www.w3.org/2000/svg" xmlns:xlink="http://www.w3.org/1999/xlink" width="40" zoomAndPan="magnify" viewBox="0 0 30 30.000001" height="40" preserveAspectRatio="xMidYMid meet" version="1.0"><defs><clipPath id="d13438d5d9"><path d="M 0.484375 0 L 29.515625 0 L 29.515625 29.03125 L 0.484375 29.03125 Z M 0.484375 0 " clip-rule="nonzero"/></clipPath><clipPath id="2c1e63f5af"><path d="M 15 0 C 6.984375 0 0.484375 6.5 0.484375 14.515625 C 0.484375 22.53125 6.984375 29.03125 15 29.03125 C 23.015625 29.03125 29.515625 22.53125 29.515625 14.515625 C 29.515625 6.5 23.015625 0 15 0 Z M 15 0 " clip-rule="nonzero"/></clipPath><clipPath id="56eae867a2"><path d="M 6.894531 6 L 22.863281 6 L 22.863281 23.363281 L 6.894531 23.363281 Z M 6.894531 6 " clip-rule="nonzero"/></clipPath></defs><g clip-path="url(#d13438d5d9)"><g clip-path="url(#2c1e63f5af)"><path fill="#d92323" d="M 0.484375 0 L 29.515625 0 L 29.515625 29.03125 L 0.484375 29.03125 Z M 0.484375 0 " fill-opacity="1" fill-rule="nonzero"/></g></g><path fill="#f2e3d0" d="M 15.019531 9.757812 C 15.9375 9.757812 16.683594 9.027344 16.683594 8.125 C 16.683594 7.226562 15.9375 6.496094 15.019531 6.496094 C 14.097656 6.496094 13.351562 7.226562 13.351562 8.125 C 13.351562 9.027344 14.097656 9.757812 15.019531 9.757812 Z M 15.019531 9.757812 " fill-opacity="1" fill-rule="nonzero"/><g clip-path="url(#56eae867a2)"><path fill="#f2e3d0" d="M 19.839844 6.105469 L 18.867188 6.105469 C 19.34375 6.832031 19.597656 7.671875 19.597656 8.535156 C 19.597656 10.898438 15.179688 16.011719 15.003906 16.230469 C 14.984375 16.253906 10.4375 10.898438 10.4375 8.535156 C 10.433594 7.671875 10.6875 6.832031 11.167969 6.105469 L 6.976562 6.105469 L 15.007812 23.074219 L 23.058594 6.105469 Z M 19.839844 6.105469 " fill-opacity="1" fill-rule="nonzero"/></g></svg>